<svg xmlns="http://www.w3.org/2000/svg" xmlns:xlink="http://www.w3.org/1999/xlink" width="290" zoomAndPan="magnify" viewBox="0 0 217.5 107.249998" height="143" preserveAspectRatio="xMidYMid meet" version="1.0" xmlns:c2pa="http://c2pa.org/manifest"><metadata><c2pa:manifest>AAAWgmp1bWIAAAAeanVtZGMycGEAEQAQgAAAqgA4m3EDYzJwYQAAABZcanVtYgAAAEdqdW1kYzJtYQARABCAAACqADibcQN1cm46YzJwYToyOTc1ZWQ2Yy03ZWM1LTQ2YzEtODQ4MS03MjQ2YjQ0MjhhMGEAAAADl2p1bWIAAAApanVtZGMyYXMAEQAQgAAAqgA4m3EDYzJwYS5hc3NlcnRpb25zAAAAALxqdW1iAAAARGp1bWRjYm9yABEAEIAAAKoAOJtxE2MycGEuaW5ncmVkaWVudC52MwAAAAAYYzJzaC8KPoJ+kGbXyS5aSabuvQUAAABwY2JvcqNpZGM6Zm9ybWF0bWltYWdlL3N2Zyt4bWxqaW5zdGFuY2VJRHgseG1wOmlpZDo5ZmJiMzg0ZS1mYTcwLTQ5YTYtYjNhYi0xODFhY2I0ZjFlMjZscmVsYXRpb25zaGlwaHBhcmVudE9mAAAB4mp1bWIAAABBanVtZGNib3IAEQAQgAAAqgA4m3ETYzJwYS5hY3Rpb25zLnYyAAAAABhjMnNo9o7NU/e2AfZp/sa43sVpSAAAAZljYm9yomdhY3Rpb25zgqJmYWN0aW9ua2MycGEub3BlbmVkanBhcmFtZXRlcnOha2luZ3JlZGllbnRzgaJjdXJseC1zZWxmI2p1bWJmPWMycGEuYXNzZXJ0aW9ucy9jMnBhLmluZ3JlZGllbnQudjNkaGFzaFggDiqUfx4B9xL72N2FXa4zrZb0VThwApgGy61XB3dL19OkZmFjdGlvbngdY29tLmFudGhyb3BpYy5jbGF1ZGUucHJvdmlkZWRqcGFyYW1ldGVyc6F4H2NvbS5hbnRocm9waWMub3JpZ2luLWNvbmZpZGVuY2VndW5rbm93bmtkZXNjcmlwdGlvbnhmQ2xhdWRlIHByb3ZpZGVkIHRoaXMgZmlsZSBhdCB0aGUgcmVxdWVzdCBvZiBhIHVzZXIgYW5kIG1heSBoYXZlIGNyZWF0ZWQgb3IgbW9kaWZpZWQgdGhlIGZpbGUgY29udGVudHMubXNvZnR3YXJlQWdlbnShZG5hbWVmQ2xhdWRlcmFsbEFjdGlvbnNJbmNsdWRlZPUAAADIanVtYgAAAEBqdW1kY2JvcgARABCAAACqADibcRNjMnBhLmhhc2guZGF0YQAAAAAYYzJzaD2z3NS+iTrG5/8kt1JTxRQAAACAY2JvcqVjYWxnZnNoYTI1NmNwYWRMAAAAAAAAAAAAAAAAZGhhc2hYIMoaSdyd2czmu7CrvMkiODCRFyjNU4QZq95ZdDZejE/nZG5hbWVuanVtYmYgbWFuaWZlc3RqZXhjbHVzaW9uc4GiZXN0YXJ0GQERZmxlbmd0aBkeBAAAAj5qdW1iAAAAJ2p1bWRjMmNsABEAEIAAAKoAOJtxA2MycGEuY2xhaW0udjIAAAACD2Nib3KlY2FsZ2ZzaGEyNTZpc2lnbmF0dXJleE1zZWxmI2p1bWJmPS9jMnBhL3VybjpjMnBhOjI5NzVlZDZjLTdlYzUtNDZjMS04NDgxLTcyNDZiNDQyOGEwYS9jMnBhLnNpZ25hdHVyZWppbnN0YW5jZUlEeCx4bXA6aWlkOmUyZjA2YmQ1LWQ2M2QtNGNhNS04NTg0LTVhNzQ1NTE0MDMwM3JjcmVhdGVkX2Fzc2VydGlvbnODomN1cmx4LXNlbGYjanVtYmY9YzJwYS5hc3NlcnRpb25zL2MycGEuaW5ncmVkaWVudC52M2RoYXNoWCAOKpR/HgH3EvvY3YVdrjOtlvRVOHACmAbLrVcHd0vX06JjdXJseCpzZWxmI2p1bWJmPWMycGEuYXNzZXJ0aW9ucy9jMnBhLmFjdGlvbnMudjJkaGFzaFggVb0mBC93S9GOwe7+/CX+85Ft/zrMDn05CZ7pMTrba0GiY3VybHgpc2VsZiNqdW1iZj1jMnBhLmFzc2VydGlvbnMvYzJwYS5oYXNoLmRhdGFkaGFzaFggRVYpzVTjYEgYgE4a+e34rlz5aAgQZo7c9do3yVmLq890Y2xhaW1fZ2VuZXJhdG9yX2luZm+jZG5hbWVvQW50aHJvcGljIEZpbGVzZ3ZlcnNpb25lMS4wLjBrc3BlY1ZlcnNpb25lMi40LjAAABA4anVtYgAAAChqdW1kYzJjcwARABCAAACqADibcQNjMnBhLnNpZ25hdHVyZQAAABAIY2JvctKEWQISogEmGCFZAgowggIGMIIBjaADAgECAhRA5aAK7sI50L64g/oGQgU9Z1UTADAKBggqhkjOPQQDAzBJMRcwFQYDVQQKEw5BbnRocm9waWMsIFBCQzEuMCwGA1UEAxMlQW50aHJvcGljIENvbnRlbnQgQ3JlZGVudGlhbHMgUm9vdCBDQTAeFw0yNjA4MDcxODQzNTZaFw0yODA4MDYxOTQzNTZaMEQxFzAVBgNVBAoTDkFudGhyb3BpYywgUEJDMSkwJwYDVQQDEyBBbnRocm9waWMgQ2xhdWRlIENvbnRlbnQgU2lnbmluZzBZMBMGByqGSM49AgEGCCqGSM49AwEHA0IABJh6CmvLUBgFFNU0vUKlOVtE6djd17L5SuwX0LemFisBM3dkd/3cyjxFA3Qo5S46fX0/ihY0VZ7mfb9KF703t5OjWDBWMA4GA1UdDwEB/wQEAwIHgDAVBgNVHSUEDjAMBgorBgEEAYPoXgIBMAwGA1UdEwEB/wQCMAAwHwYDVR0jBBgwFoAUzlHiBIFOZFsj+OPEz5o+nMHXXMIwCgYIKoZIzj0EAwMDZwAwZAIwMXMdFJ4BetLLVY7ORuE9noqbbAZOZn/aArXyTwFAZfKrPzxF2vPoJNf1+UCdg1XGAjBwX1zd9WGqYkqmL5SFqw1QySjr1zJfpJM9+1rdDwSPLMOPOjKuiXjoU/pUUeG9RwmhY3BhZFkNngAAAAAAAAAAAAAAAAAAAAAAAAAAAAAAAAAAAAAAAAAAAAAAAAAAAAAAAAAAAAAAAAAAAAAAAAAAAAAAAAAAAAAAAAAAAAAAAAAAAAAAAAAAAAAAAAAAAAAAAAAAAAAAAAAAAAAAAAAAAAAAAAAAAAAAAAAAAAAAAAAAAAAAAAAAAAAAAAAAAAAAAAAAAAAAAAAAAAAAAAAAAAAAAAAAAAAAAAAAAAAAAAAAAAAAAAAAAAAAAAAAAAAAAAAAAAAAAAAAAAAAAAAAAAAAAAAAAAAAAAAAAAAAAAAAAAAAAAAAAAAAAAAAAAAAAAAAAAAAAAAAAAAAAAAAAAAAAAAAAAAAAAAAAAAAAAAAAAAAAAAAAAAAAAAAAAAAAAAAAAAAAAAAAAAAAAAAAAAAAAAAAAAAAAAAAAAAAAAAAAAAAAAAAAAAAAAAAAAAAAAAAAAAAAAAAAAAAAAAAAAAAAAAAAAAAAAAAAAAAAAAAAAAAAAAAAAAAAAAAAAAAAAAAAAAAAAAAAAAAAAAAAAAAAAAAAAAAAAAAAAAAAAAAAAAAAAAAAAAAAAAAAAAAAAAAAAAAAAAAAAAAAAAAAAAAAAAAAAAAAAAAAAAAAAAAAAAAAAAAAAAAAAAAAAAAAAAAAAAAAAAAAAAAAAAAAAAAAAAAAAAAAAAAAAAAAAAAAAAAAAAAAAAAAAAAAAAAAAAAAAAAAAAAAAAAAAAAAAAAAAAAAAAAAAAAAAAAAAAAAAAAAAAAAAAAAAAAAAAAAAAAAAAAAAAAAAAAAAAAAAAAAAAAAAAAAAAAAAAAAAAAAAAAAAAAAAAAAAAAAAAAAAAAAAAAAAAAAAAAAAAAAAAAAAAAAAAAAAAAAAAAAAAAAAAAAAAAAAAAAAAAAAAAAAAAAAAAAAAAAAAAAAAAAAAAAAAAAAAAAAAAAAAAAAAAAAAAAAAAAAAAAAAAAAAAAAAAAAAAAAAAAAAAAAAAAAAAAAAAAAAAAAAAAAAAAAAAAAAAAAAAAAAAAAAAAAAAAAAAAAAAAAAAAAAAAAAAAAAAAAAAAAAAAAAAAAAAAAAAAAAAAAAAAAAAAAAAAAAAAAAAAAAAAAAAAAAAAAAAAAAAAAAAAAAAAAAAAAAAAAAAAAAAAAAAAAAAAAAAAAAAAAAAAAAAAAAAAAAAAAAAAAAAAAAAAAAAAAAAAAAAAAAAAAAAAAAAAAAAAAAAAAAAAAAAAAAAAAAAAAAAAAAAAAAAAAAAAAAAAAAAAAAAAAAAAAAAAAAAAAAAAAAAAAAAAAAAAAAAAAAAAAAAAAAAAAAAAAAAAAAAAAAAAAAAAAAAAAAAAAAAAAAAAAAAAAAAAAAAAAAAAAAAAAAAAAAAAAAAAAAAAAAAAAAAAAAAAAAAAAAAAAAAAAAAAAAAAAAAAAAAAAAAAAAAAAAAAAAAAAAAAAAAAAAAAAAAAAAAAAAAAAAAAAAAAAAAAAAAAAAAAAAAAAAAAAAAAAAAAAAAAAAAAAAAAAAAAAAAAAAAAAAAAAAAAAAAAAAAAAAAAAAAAAAAAAAAAAAAAAAAAAAAAAAAAAAAAAAAAAAAAAAAAAAAAAAAAAAAAAAAAAAAAAAAAAAAAAAAAAAAAAAAAAAAAAAAAAAAAAAAAAAAAAAAAAAAAAAAAAAAAAAAAAAAAAAAAAAAAAAAAAAAAAAAAAAAAAAAAAAAAAAAAAAAAAAAAAAAAAAAAAAAAAAAAAAAAAAAAAAAAAAAAAAAAAAAAAAAAAAAAAAAAAAAAAAAAAAAAAAAAAAAAAAAAAAAAAAAAAAAAAAAAAAAAAAAAAAAAAAAAAAAAAAAAAAAAAAAAAAAAAAAAAAAAAAAAAAAAAAAAAAAAAAAAAAAAAAAAAAAAAAAAAAAAAAAAAAAAAAAAAAAAAAAAAAAAAAAAAAAAAAAAAAAAAAAAAAAAAAAAAAAAAAAAAAAAAAAAAAAAAAAAAAAAAAAAAAAAAAAAAAAAAAAAAAAAAAAAAAAAAAAAAAAAAAAAAAAAAAAAAAAAAAAAAAAAAAAAAAAAAAAAAAAAAAAAAAAAAAAAAAAAAAAAAAAAAAAAAAAAAAAAAAAAAAAAAAAAAAAAAAAAAAAAAAAAAAAAAAAAAAAAAAAAAAAAAAAAAAAAAAAAAAAAAAAAAAAAAAAAAAAAAAAAAAAAAAAAAAAAAAAAAAAAAAAAAAAAAAAAAAAAAAAAAAAAAAAAAAAAAAAAAAAAAAAAAAAAAAAAAAAAAAAAAAAAAAAAAAAAAAAAAAAAAAAAAAAAAAAAAAAAAAAAAAAAAAAAAAAAAAAAAAAAAAAAAAAAAAAAAAAAAAAAAAAAAAAAAAAAAAAAAAAAAAAAAAAAAAAAAAAAAAAAAAAAAAAAAAAAAAAAAAAAAAAAAAAAAAAAAAAAAAAAAAAAAAAAAAAAAAAAAAAAAAAAAAAAAAAAAAAAAAAAAAAAAAAAAAAAAAAAAAAAAAAAAAAAAAAAAAAAAAAAAAAAAAAAAAAAAAAAAAAAAAAAAAAAAAAAAAAAAAAAAAAAAAAAAAAAAAAAAAAAAAAAAAAAAAAAAAAAAAAAAAAAAAAAAAAAAAAAAAAAAAAAAAAAAAAAAAAAAAAAAAAAAAAAAAAAAAAAAAAAAAAAAAAAAAAAAAAAAAAAAAAAAAAAAAAAAAAAAAAAAAAAAAAAAAAAAAAAAAAAAAAAAAAAAAAAAAAAAAAAAAAAAAAAAAAAAAAAAAAAAAAAAAAAAAAAAAAAAAAAAAAAAAAAAAAAAAAAAAAAAAAAAAAAAAAAAAAAAAAAAAAAAAAAAAAAAAAAAAAAAAAAAAAAAAAAAAAAAAAAAAAAAAAAAAAAAAAAAAAAAAAAAAAAAAAAAAAAAAAAAAAAAAAAAAAAAAAAAAAAAAAAAAAAAAAAAAAAAAAAAAAAAAAAAAAAAAAAAAAAAAAAAAAAAAAAAAAAAAAAAAAAAAAAAAAAAAAAAAAAAAAAAAAAAAAAAAAAAAAAAAAAAAAAAAAAAAAAAAAAAAAAAAAAAAAAAAAAAAAAAAAAAAAAAAAAAAAAAAAAAAAAAAAAAAAAAAAAAAAAAAAAAAAAAAAAAAAAAAAAAAAAAAAAAAAAAAAAAAAAAAAAAAAAAAAAAAAAAAAAAAAAAAAAAAAAAAAAAAAAAAAAAAAAAAAAAAAAAAAAAAAAAAAAAAAAAAAAAAAAAAAAAAAAAAAAAAAAAAAAAAAAAAAAAAAAAAAAAAAAAAAAAAAAAAAAAAAAAAAAAAAAAAAAAAAAAAAAAAAAAAAAAAAAAAAAAAAAAAAAAAAAAAAAAAAAAAAAAAAAAAAAAAAAAAAAAAAAAAAAAAAAAAAAAAAAAAAAAAAAAAAAAAAAAAAAAAAAAAAAAAAAAAAAAAAAAAAAAAAAAAAAAAAAAAAAAAAAAAAAAAAAAAAAAAAAAAAAAAAAAAAAAAAAAAAAAAAAAAAAAAAAAAAAAAAAAAAAAAAAAAAAAAAAAAAAAAAAAAAAAAAAAAAAAAAAAAAAAAAAAAAAAAAAAAAAAAAAAAAAAAAAAAAAAAAAAAAAAAAAAAAAAAAAAAAAAAAAAAAAAAAAAAAAAAAAAAAAAAAAAAAAAAAAAAAAAAAAAAAAAAAAAAAAAAAAAAAAAAAAAAAAAAAAAAAAAAAAAAAAAAAAAAAAAAAAAAAAAAAAAAAAAAAAAAAAAAAAAAAAAAAAAAAAAAAAAAAAAAAAAAAAAAAAAAAAAAAAAAAAAAAAAAAAAAAAAAAAAAAAAAAAAAAAAAAAAAAAAAAAAAAAAAAAAAAAAAAAAAAAAAAAAAAAAAAAAAAAAAAAAAAAAAAAAAAAAAAAAAAAAAAAAAAAAAAAAAAAAAAAAAAAAAAAAAAAAAAAAAAAAAAAAAAAAAAAAAAAAAAAAAAAAAAAAAAAAAAAAAAAAAAAAAAAAAAAAAAAAAAAAAAAAAAAAAAAAAAAAAAAAAAAAAAAAAAAAAAAAAAAAAAAAAAAAAAAAAAAAAAAAAAAAAAAAAAAAAAAAAAAAAAAAAAAAAAAAAAAAAAAAAAAAAAAAAAAAAAAAAAAAAAAAAAAAAAAAAAAAAAAAAAAAAAAAAAAAAAAAAAAAAAAAAAAAAAAAAAAAAAAAAAAAAAAAAAAAAAAAAAAAAAAAAAAAAAAAAAAAAAAAAAAAAAAAAAAAAAAAAAAAAAAAAAAAAAAAAAAAAAAAAAAAAAAAAAAAAAAAAAAAAAAAAAAAAAAAAAAAAAAAAAAAAAAAAAAAAAAAAAAAAAAAAAAAAAAAAAAAAAAAAAAAAAAAAAAAAAAAAAAAAAAAAAAAAAAAAAAAAAAAAAAAAAAAAAAAAAAAAAAAAAAAAAAAAAAAAAAAAAAAAAAAAAAAAAAAAAAAAAAAAAAAAAAAAAAAAAAAAAAAAAAAAAAAAAAAAAAAAAAAAAAAAAAAAAAAAAAAAAAAAAAAAAAAAAAAAAAAAAAAAAAAAAAAAAAAAAAAAAAAAAAAAAAAAAAAAAAAAAAAAAAAAAAAAAAAAAAAAAAAAAAAAAAAAAAAAAAAAAAAAAAAAAAAAAAAAAAAAAAAAAAAAAAAAAAAAAAAAAAAAAAAAAAAAAAAAAAAAAAAAAAAAAAAAAAAAAAAAAAAAAAAAAAAAAAAAAAAAAAAAAAAAAAAAAAAAAAAAAAAAAAAAAAAAAAAAAPZYQMDcZzHvL3blINHAhY4ndnVpjR3QOADHt4WkYESzL9DQonPSps0tAslUd1QIjjFansy0NB4pkUr3/BRPa/Qt4Rc=</c2pa:manifest></metadata><path fill="#303A99" d="M 68.558594 40.664062 L 75.90625 40.664062 L 75.90625 83.925781 L 68.558594 83.925781 Z M 68.558594 40.664062 " fill-opacity="1" fill-rule="nonzero"/><path fill="#303A99" d="M 127.363281 20.457031 L 127.363281 83.925781 L 120.09375 83.925781 L 120.09375 75.742188 L 119.84375 75.742188 C 118.285156 78.523438 116.15625 80.738281 113.453125 82.378906 C 110.753906 84.019531 107.59375 84.84375 103.972656 84.84375 C 99.910156 84.84375 96.316406 83.898438 93.199219 82.003906 C 90.078125 80.113281 87.628906 77.464844 85.847656 74.070312 C 84.066406 70.675781 83.175781 66.722656 83.175781 62.210938 C 83.175781 57.757812 84.09375 53.847656 85.929688 50.476562 C 87.769531 47.109375 90.261719 44.480469 93.40625 42.585938 C 96.554688 40.695312 100.101562 39.746094 104.058594 39.746094 C 107.675781 39.746094 110.835938 40.527344 113.539062 42.085938 C 116.238281 43.644531 118.3125 45.84375 119.761719 48.683594 L 120.011719 48.683594 L 120.011719 20.457031 Z M 105.144531 47.597656 C 102.46875 47.597656 100.046875 48.238281 97.875 49.515625 C 95.703125 50.796875 93.992188 52.550781 92.738281 54.777344 C 91.484375 57.007812 90.859375 59.59375 90.859375 62.546875 C 90.859375 65.609375 91.472656 68.308594 92.699219 70.644531 C 93.921875 72.984375 95.621094 74.792969 97.792969 76.074219 C 99.964844 77.355469 102.414062 77.996094 105.144531 77.996094 C 107.984375 77.996094 110.515625 77.339844 112.746094 76.03125 C 114.972656 74.726562 116.710938 72.902344 117.964844 70.5625 C 119.21875 68.222656 119.84375 65.550781 119.84375 62.546875 C 119.84375 59.539062 119.21875 56.921875 117.964844 54.695312 C 116.710938 52.46875 114.972656 50.726562 112.746094 49.476562 C 110.515625 48.222656 107.984375 47.597656 105.144531 47.597656 Z M 105.144531 47.597656 " fill-opacity="1" fill-rule="nonzero"/><path fill="#303A99" d="M 137.886719 40.664062 L 145.238281 40.664062 L 145.238281 83.925781 L 137.886719 83.925781 Z M 137.886719 40.664062 " fill-opacity="1" fill-rule="nonzero"/><path fill="#303A99" d="M 180.320312 54.695312 C 180.320312 52.636719 179.527344 50.9375 177.941406 49.601562 C 176.351562 48.265625 173.722656 47.597656 170.046875 47.597656 C 167.375 47.597656 164.851562 47.917969 162.488281 48.558594 C 160.117188 49.199219 158.101562 49.933594 156.429688 50.769531 L 155.761719 43.253906 C 157.65625 42.199219 159.898438 41.347656 162.488281 40.707031 C 165.074219 40.066406 167.84375 39.746094 170.796875 39.746094 C 174.976562 39.746094 178.328125 40.402344 180.863281 41.710938 C 183.398438 43.019531 185.234375 44.839844 186.375 47.179688 C 187.515625 49.519531 188.089844 52.273438 188.089844 55.445312 L 188.089844 83.925781 L 180.65625 83.925781 L 180.65625 77.160156 C 179.09375 79.277344 177.203125 81.085938 174.976562 82.589844 C 172.746094 84.089844 169.796875 84.84375 166.121094 84.84375 C 162.390625 84.84375 159.269531 83.871094 156.765625 81.921875 C 154.257812 79.972656 153.007812 77.160156 153.007812 73.484375 C 153.007812 71.371094 153.351562 69.546875 154.050781 68.015625 C 154.746094 66.484375 155.804688 65.21875 157.222656 64.214844 C 158.644531 63.214844 160.398438 62.378906 162.488281 61.710938 C 164.574219 61.042969 167.039062 60.488281 169.878906 60.039062 C 171.9375 59.707031 173.691406 59.34375 175.140625 58.953125 C 176.589844 58.566406 177.816406 58.121094 178.816406 57.617188 C 179.484375 57.285156 179.902344 56.910156 180.070312 56.492188 C 180.238281 56.074219 180.320312 55.476562 180.320312 54.695312 Z M 180.65625 61.960938 C 179.652344 62.519531 178.273438 63.0625 176.519531 63.589844 C 174.765625 64.117188 172.800781 64.578125 170.628906 64.96875 C 167.34375 65.582031 164.851562 66.429688 163.15625 67.515625 C 161.457031 68.601562 160.605469 70.367188 160.605469 72.816406 C 160.605469 75.042969 161.414062 76.699219 163.03125 77.785156 C 164.644531 78.871094 166.566406 79.414062 168.792969 79.414062 C 170.796875 79.414062 172.59375 79.039062 174.179688 78.285156 C 175.769531 77.535156 177.105469 76.535156 178.191406 75.28125 C 179.277344 74.027344 180.097656 72.707031 180.65625 71.3125 Z M 180.65625 61.960938 " fill-opacity="1" fill-rule="nonzero"/><path fill="#303A99" d="M 61.003906 76.386719 C 56.128906 74.625 46.339844 72.089844 35.933594 75.09375 C 38.066406 64.390625 41.390625 42.46875 38.226562 21.113281 L 31.457031 21.113281 L 31.113281 21.164062 C 35.542969 49.144531 27.707031 79.667969 27.628906 79.972656 L 32.695312 83.96875 C 45.734375 77.003906 60.066406 83.542969 61.003906 83.984375 Z M 61.003906 76.386719 " fill-opacity="1" fill-rule="nonzero"/><path fill="#303A99" d="M 72.230469 33.398438 C 70.730469 33.398438 69.488281 32.925781 68.515625 31.980469 C 67.539062 31.035156 67.054688 29.808594 67.054688 28.304688 C 67.054688 26.800781 67.527344 25.578125 68.472656 24.632812 C 69.417969 23.683594 70.671875 23.210938 72.230469 23.210938 C 73.734375 23.210938 74.972656 23.683594 75.949219 24.632812 C 76.921875 25.578125 77.410156 26.800781 77.410156 28.304688 C 77.410156 29.808594 76.921875 31.035156 75.949219 31.980469 C 74.972656 32.925781 73.734375 33.398438 72.230469 33.398438 Z M 72.230469 33.398438 " fill-opacity="1" fill-rule="nonzero"/><path fill="#303A99" d="M 141.5625 33.398438 C 140.058594 33.398438 138.820312 32.925781 137.84375 31.980469 C 136.871094 31.035156 136.382812 29.808594 136.382812 28.304688 C 136.382812 26.800781 136.855469 25.578125 137.804688 24.632812 C 138.75 23.683594 140.003906 23.210938 141.5625 23.210938 C 143.066406 23.210938 144.304688 23.683594 145.277344 24.632812 C 146.253906 25.578125 146.742188 26.800781 146.742188 28.304688 C 146.742188 29.808594 146.253906 31.035156 145.277344 31.980469 C 144.304688 32.925781 143.066406 33.398438 141.5625 33.398438 Z M 141.5625 33.398438 " fill-opacity="1" fill-rule="nonzero"/></svg>